<svg id="visual" viewBox="0 0 900 600" width="900" height="600" xmlns="http://www.w3.org/2000/svg" xmlns:xlink="http://www.w3.org/1999/xlink" version="1.1"><rect x="0" y="0" width="900" height="600" fill="#140021"></rect><path d="M566 0L469 0L469 26L805 26L805 52L182 52L182 78L876 78L876 104L796 104L796 130L616 130L616 157L617 157L617 183L659 183L659 209L517 209L517 235L610 235L610 261L535 261L535 287L632 287L632 313L518 313L518 339L825 339L825 365L236 365L236 391L221 391L221 417L647 417L647 443L766 443L766 470L857 470L857 496L741 496L741 522L572 522L572 548L195 548L195 574L755 574L755 600L0 600L0 574L0 574L0 548L0 548L0 522L0 522L0 496L0 496L0 470L0 470L0 443L0 443L0 417L0 417L0 391L0 391L0 365L0 365L0 339L0 339L0 313L0 313L0 287L0 287L0 261L0 261L0 235L0 235L0 209L0 209L0 183L0 183L0 157L0 157L0 130L0 130L0 104L0 104L0 78L0 78L0 52L0 52L0 26L0 26L0 0L0 0Z" fill="#9900ff"></path><path d="M205 0L310 0L310 26L219 26L219 52L554 52L554 78L206 78L206 104L639 104L639 130L804 130L804 157L519 157L519 183L262 183L262 209L409 209L409 235L764 235L764 261L391 261L391 287L436 287L436 313L321 313L321 339L199 339L199 365L423 365L423 391L682 391L682 417L746 417L746 443L786 443L786 470L350 470L350 496L782 496L782 522L617 522L617 548L163 548L163 574L333 574L333 600L0 600L0 574L0 574L0 548L0 548L0 522L0 522L0 496L0 496L0 470L0 470L0 443L0 443L0 417L0 417L0 391L0 391L0 365L0 365L0 339L0 339L0 313L0 313L0 287L0 287L0 261L0 261L0 235L0 235L0 209L0 209L0 183L0 183L0 157L0 157L0 130L0 130L0 104L0 104L0 78L0 78L0 52L0 52L0 26L0 26L0 0L0 0Z" fill="#9200f3"></path><path d="M289 0L360 0L360 26L204 26L204 52L158 52L158 78L478 78L478 104L293 104L293 130L728 130L728 157L614 157L614 183L411 183L411 209L519 209L519 235L482 235L482 261L259 261L259 287L124 287L124 313L727 313L727 339L127 339L127 365L290 365L290 391L485 391L485 417L411 417L411 443L492 443L492 470L562 470L562 496L529 496L529 522L257 522L257 548L195 548L195 574L128 574L128 600L0 600L0 574L0 574L0 548L0 548L0 522L0 522L0 496L0 496L0 470L0 470L0 443L0 443L0 417L0 417L0 391L0 391L0 365L0 365L0 339L0 339L0 313L0 313L0 287L0 287L0 261L0 261L0 235L0 235L0 209L0 209L0 183L0 183L0 157L0 157L0 130L0 130L0 104L0 104L0 78L0 78L0 52L0 52L0 26L0 26L0 0L0 0Z" fill="#8b00e8"></path><path d="M642 0L212 0L212 26L551 26L551 52L467 52L467 78L215 78L215 104L226 104L226 130L191 130L191 157L107 157L107 183L674 183L674 209L371 209L371 235L111 235L111 261L501 261L501 287L123 287L123 313L670 313L670 339L164 339L164 365L452 365L452 391L138 391L138 417L378 417L378 443L441 443L441 470L182 470L182 496L462 496L462 522L138 522L138 548L163 548L163 574L587 574L587 600L0 600L0 574L0 574L0 548L0 548L0 522L0 522L0 496L0 496L0 470L0 470L0 443L0 443L0 417L0 417L0 391L0 391L0 365L0 365L0 339L0 339L0 313L0 313L0 287L0 287L0 261L0 261L0 235L0 235L0 209L0 209L0 183L0 183L0 157L0 157L0 130L0 130L0 104L0 104L0 78L0 78L0 52L0 52L0 26L0 26L0 0L0 0Z" fill="#8400dc"></path><path d="M180 0L153 0L153 26L502 26L502 52L230 52L230 78L97 78L97 104L400 104L400 130L193 130L193 157L95 157L95 183L459 183L459 209L367 209L367 235L381 235L381 261L590 261L590 287L204 287L204 313L414 313L414 339L196 339L196 365L209 365L209 391L265 391L265 417L140 417L140 443L407 443L407 470L541 470L541 496L100 496L100 522L319 522L319 548L101 548L101 574L350 574L350 600L0 600L0 574L0 574L0 548L0 548L0 522L0 522L0 496L0 496L0 470L0 470L0 443L0 443L0 417L0 417L0 391L0 391L0 365L0 365L0 339L0 339L0 313L0 313L0 287L0 287L0 261L0 261L0 235L0 235L0 209L0 209L0 183L0 183L0 157L0 157L0 130L0 130L0 104L0 104L0 78L0 78L0 52L0 52L0 26L0 26L0 0L0 0Z" fill="#7e00d1"></path><path d="M143 0L332 0L332 26L208 26L208 52L331 52L331 78L156 78L156 104L451 104L451 130L422 130L422 157L487 157L487 183L268 183L268 209L265 209L265 235L475 235L475 261L464 261L464 287L215 287L215 313L196 313L196 339L354 339L354 365L143 365L143 391L377 391L377 417L286 417L286 443L292 443L292 470L281 470L281 496L269 496L269 522L182 522L182 548L419 548L419 574L314 574L314 600L0 600L0 574L0 574L0 548L0 548L0 522L0 522L0 496L0 496L0 470L0 470L0 443L0 443L0 417L0 417L0 391L0 391L0 365L0 365L0 339L0 339L0 313L0 313L0 287L0 287L0 261L0 261L0 235L0 235L0 209L0 209L0 183L0 183L0 157L0 157L0 130L0 130L0 104L0 104L0 78L0 78L0 52L0 52L0 26L0 26L0 0L0 0Z" fill="#7700c6"></path><path d="M182 0L344 0L344 26L327 26L327 52L227 52L227 78L242 78L242 104L412 104L412 130L367 130L367 157L86 157L86 183L95 183L95 209L207 209L207 235L242 235L242 261L185 261L185 287L315 287L315 313L402 313L402 339L248 339L248 365L176 365L176 391L417 391L417 417L218 417L218 443L134 443L134 470L295 470L295 496L246 496L246 522L274 522L274 548L151 548L151 574L400 574L400 600L0 600L0 574L0 574L0 548L0 548L0 522L0 522L0 496L0 496L0 470L0 470L0 443L0 443L0 417L0 417L0 391L0 391L0 365L0 365L0 339L0 339L0 313L0 313L0 287L0 287L0 261L0 261L0 235L0 235L0 209L0 209L0 183L0 183L0 157L0 157L0 130L0 130L0 104L0 104L0 78L0 78L0 52L0 52L0 26L0 26L0 0L0 0Z" fill="#7000bb"></path><path d="M331 0L70 0L70 26L371 26L371 52L318 52L318 78L183 78L183 104L360 104L360 130L344 130L344 157L216 157L216 183L247 183L247 209L150 209L150 235L119 235L119 261L309 261L309 287L358 287L358 313L363 313L363 339L187 339L187 365L278 365L278 391L97 391L97 417L238 417L238 443L249 443L249 470L125 470L125 496L221 496L221 522L260 522L260 548L371 548L371 574L179 574L179 600L0 600L0 574L0 574L0 548L0 548L0 522L0 522L0 496L0 496L0 470L0 470L0 443L0 443L0 417L0 417L0 391L0 391L0 365L0 365L0 339L0 339L0 313L0 313L0 287L0 287L0 261L0 261L0 235L0 235L0 209L0 209L0 183L0 183L0 157L0 157L0 130L0 130L0 104L0 104L0 78L0 78L0 52L0 52L0 26L0 26L0 0L0 0Z" fill="#6a00b0"></path><path d="M83 0L61 0L61 26L43 26L43 52L227 52L227 78L65 78L65 104L246 104L246 130L151 130L151 157L159 157L159 183L211 183L211 209L152 209L152 235L198 235L198 261L295 261L295 287L176 287L176 313L257 313L257 339L292 339L292 365L241 365L241 391L142 391L142 417L133 417L133 443L140 443L140 470L96 470L96 496L103 496L103 522L46 522L46 548L273 548L273 574L233 574L233 600L0 600L0 574L0 574L0 548L0 548L0 522L0 522L0 496L0 496L0 470L0 470L0 443L0 443L0 417L0 417L0 391L0 391L0 365L0 365L0 339L0 339L0 313L0 313L0 287L0 287L0 261L0 261L0 235L0 235L0 209L0 209L0 183L0 183L0 157L0 157L0 130L0 130L0 104L0 104L0 78L0 78L0 52L0 52L0 26L0 26L0 0L0 0Z" fill="#6300a5"></path><path d="M125 0L69 0L69 26L71 26L71 52L219 52L219 78L183 78L183 104L105 104L105 130L101 130L101 157L224 157L224 183L209 183L209 209L206 209L206 235L111 235L111 261L162 261L162 287L54 287L54 313L22 313L22 339L57 339L57 365L148 365L148 391L16 391L16 417L67 417L67 443L210 443L210 470L161 470L161 496L127 496L127 522L41 522L41 548L161 548L161 574L100 574L100 600L0 600L0 574L0 574L0 548L0 548L0 522L0 522L0 496L0 496L0 470L0 470L0 443L0 443L0 417L0 417L0 391L0 391L0 365L0 365L0 339L0 339L0 313L0 313L0 287L0 287L0 261L0 261L0 235L0 235L0 209L0 209L0 183L0 183L0 157L0 157L0 130L0 130L0 104L0 104L0 78L0 78L0 52L0 52L0 26L0 26L0 0L0 0Z" fill="#5c009b"></path><path d="M55 0L41 0L41 26L120 26L120 52L14 52L14 78L82 78L82 104L62 104L62 130L45 130L45 157L47 157L47 183L91 183L91 209L27 209L27 235L18 235L18 261L50 261L50 287L30 287L30 313L145 313L145 339L65 339L65 365L27 365L27 391L48 391L48 417L92 417L92 443L75 443L75 470L117 470L117 496L71 496L71 522L147 522L147 548L71 548L71 574L35 574L35 600L0 600L0 574L0 574L0 548L0 548L0 522L0 522L0 496L0 496L0 470L0 470L0 443L0 443L0 417L0 417L0 391L0 391L0 365L0 365L0 339L0 339L0 313L0 313L0 287L0 287L0 261L0 261L0 235L0 235L0 209L0 209L0 183L0 183L0 157L0 157L0 130L0 130L0 104L0 104L0 78L0 78L0 52L0 52L0 26L0 26L0 0L0 0Z" fill="#560090"></path></svg>